<svg width="48" height="48" viewBox="0 0 48 48" fill="none" xmlns="http://www.w3.org/2000/svg">
<path d="M12.5714 8.28906C10.05 8.28906 8 10.3391 8 12.8605V35.7176C8 38.2391 10.05 40.2891 12.5714 40.2891H35.4286C37.95 40.2891 40 38.2391 40 35.7176V12.8605C40 10.3391 37.95 8.28906 35.4286 8.28906H12.5714ZM33.7929 14.2891L26.3786 22.7605L35.1 34.2891H28.2714L22.9286 27.2962L16.8071 34.2891H13.4143L21.3429 25.2248L12.9786 14.2891H19.9786L24.8143 20.6819L30.4 14.2891H33.7929ZM31.0929 32.2605L18.9571 16.2105H16.9357L29.2071 32.2605H31.0929Z" fill="#4A5A67"/>
</svg>
